<svg xmlns="http://www.w3.org/2000/svg" viewBox="0 0 32 32" fill="none">
  <rect width="32" height="32" rx="7" fill="#fff"/>
  <rect x="1" y="1" width="30" height="30" rx="6" stroke="#E8EAED" stroke-width="1" fill="none"/>
  <path d="M11 21V11h3.2c2 0 3.3 1.1 3.3 2.8 0 1.2-.7 2.1-1.8 2.5L18 21h-2.4l-2-3.5H13V21h-2z" fill="#4285F4"/>
  <path d="M13 13v2.2h1c.9 0 1.4-.4 1.4-1.1S14.9 13 14 13h-1z" fill="#4285F4"/>
  <path d="M18.5 21l1.2-2.1c1-.3 1.7-1.2 1.7-2.4 0-1.7-1.3-2.8-3.3-2.8H14v10h2v-3.7h1.3L18.5 21z" fill="#34A853"/>
  <path d="M16 13.2h1.1c.8 0 1.3.4 1.3 1s-.5 1-1.3 1H16v-2z" fill="#34A853"/>
</svg>
